<svg width="1000" height="667" viewBox="0 0 1000 667" fill="none" xmlns="http://www.w3.org/2000/svg">
<rect width="1000" height="667" fill="#E5E5E5"/>
<g clip-path="url(#clip0)">
<path d="M0 666.667H1000V6.00815e-05H0V666.667Z" fill="#E9FDFF"/>
<g opacity="0.369995">
<g opacity="0.369995">
<g opacity="0.369995">
<g opacity="0.369995">
<g opacity="0.369995">
<path opacity="0.369995" d="M272.215 497.937H203.569C185.201 478.857 180.288 448.449 191.26 424.343C201.719 401.363 224.173 386.183 237.779 364.915C266.815 319.527 252.78 251.908 292.237 215.217C311.96 196.876 340.321 191.571 367.168 189.427C394.016 187.281 421.764 187.341 446.592 176.907C477.209 164.037 500.289 136.397 531.827 125.983C567.239 114.288 609.599 128.881 630.293 159.905C643.243 179.317 648.128 203.707 663.441 221.315C688.201 249.787 731.825 251.996 762.707 273.677C783.888 288.548 798.189 312.833 800.917 338.569C804.215 369.641 792.417 404.937 811.049 430.024C820.135 442.256 834.864 449.152 844.655 460.829C854.409 472.465 857.156 483.067 854.087 497.937H272.215Z" fill="url(#paint0_linear)"/>
</g>
</g>
</g>
</g>
</g>
<g opacity="0.369995">
<g opacity="0.369995">
<g opacity="0.369995">
<g opacity="0.369995">
<g opacity="0.369995">
<path opacity="0.369995" d="M289.757 497.937H221.113C202.744 478.857 197.832 448.449 208.803 424.343C219.261 401.363 241.717 386.183 255.323 364.915C284.357 319.527 270.324 251.908 309.78 215.217C329.503 196.876 357.864 191.571 384.712 189.427C411.559 187.281 439.307 187.341 464.136 176.907C494.752 164.037 517.833 136.397 549.369 125.983C584.781 114.288 627.141 128.881 647.836 159.905C660.785 179.317 665.671 203.707 680.984 221.315C705.745 249.787 749.368 251.996 780.249 273.677C801.431 288.548 815.732 312.833 818.461 338.569C821.757 369.641 809.961 404.937 828.592 430.024C837.677 442.256 852.408 449.152 862.197 460.829C871.952 472.465 874.699 483.067 871.631 497.937H289.757Z" fill="url(#paint1_linear)"/>
</g>
</g>
</g>
</g>
</g>
<path d="M299.344 163.456C291.916 167.443 285.569 173.416 281.117 180.576C273.956 192.083 271.236 207.015 260.289 215.003C248.076 223.923 231.009 220.376 216.424 224.363C199.743 228.923 186.489 246.121 189.023 263.056L189.636 262.976H444.916L447.743 262.883C447.569 259.323 446.649 255.923 443.796 254.016C441.424 252.429 438.369 252.403 435.677 251.456C430.063 249.443 426.743 243.683 424.716 238.069C422.689 232.469 421.383 226.416 417.729 221.696C409.956 211.669 394.969 211.469 382.476 213.669C378.663 214.349 374.716 215.149 370.996 214.123C366.956 213.015 363.784 209.909 361.264 206.576C349.956 191.656 346.716 169.256 329.811 161.229C326.001 159.425 321.865 158.62 317.677 158.62C311.367 158.62 304.937 160.451 299.344 163.456" fill="url(#paint2_linear)"/>
<path d="M619.548 194.145C615.175 196.172 611.003 198.705 607.403 201.905C598.308 209.972 593.268 221.879 591.563 233.904C590.109 244.039 590.496 255.304 583.923 263.159C580.496 267.252 575.629 269.785 571.056 272.545C566.481 275.292 561.896 278.599 559.696 283.465C558.003 287.172 558.295 291.997 560.669 295.119H858.363C856.616 285.292 853.321 275.745 848.655 266.931C845.856 261.652 842.348 256.439 837.109 253.572C830.609 250.021 822.753 250.672 815.005 251.324C806.112 252.072 797.359 252.82 790.961 247.212C786.295 243.119 784.509 236.745 782.163 230.985C776.548 217.159 765.109 204.465 750.308 202.545C737.723 200.931 725.321 207.397 716.041 216.051C709.509 222.145 702.109 230.039 693.401 228.037C690.363 227.331 687.736 225.452 685.443 223.345C675.723 214.479 670.255 201.185 659.109 194.199C653.591 190.739 647.224 189.243 640.724 189.243C633.5 189.244 626.112 191.092 619.548 194.145" fill="url(#paint3_linear)"/>
<path d="M371.888 303.449L291.011 421.705V460.281H368.561V497.927H420.44V460.281H441.857V421.04H420.44V303.449H371.888ZM358.053 388.981C361.865 383.041 365.281 376.657 368.297 369.827H369.76C369.581 370.183 369.337 373.972 369.028 381.201C368.716 388.429 368.561 394.169 368.561 398.427V421.04H336.505L358.053 388.981Z" fill="url(#paint4_linear)"/>
<path d="M357.72 303.461L276.844 421.717V460.293H354.395V497.937H406.273V460.293H427.689V421.052H406.273V303.461H357.72ZM343.887 388.993C347.697 383.053 351.113 376.668 354.129 369.839H355.591C355.413 370.193 355.171 373.984 354.86 381.212C354.548 388.441 354.395 394.181 354.395 398.437V421.052H322.337L343.887 388.993Z" fill="url(#paint5_linear)"/>
<path d="M681.912 320.892L624.965 452.345L632.285 490.225L708.432 475.491L712.765 497.931H765.605L759.365 465.651L766.485 464.279L780.392 461.584L772.939 423.052L759.031 425.745L751.912 427.119L729.593 311.665L681.912 320.892ZM682.045 413.477L684.579 407.491C687.191 400.932 689.325 394.012 690.992 386.732L692.432 386.464C692.325 386.839 692.804 390.612 693.872 397.771C694.939 404.917 695.873 410.584 696.685 414.771L700.977 436.971L687.072 439.665L669.511 443.053L682.045 413.477Z" fill="url(#paint6_linear)"/>
<path d="M681.912 320.892L668.005 323.584L611.057 455.053L618.379 492.917L632.285 490.225L694.525 478.199L698.339 497.931H751.179L745.459 468.345L759.365 465.651L766.485 464.279L759.031 425.759L738.005 429.824L715.672 314.372L681.912 320.892ZM670.672 410.185C673.285 403.637 675.417 396.719 677.084 389.437L678.524 389.157C678.417 389.545 678.899 393.317 679.964 400.464C680.725 405.559 681.417 409.905 682.045 413.477C682.299 414.931 682.552 416.252 682.779 417.465L687.072 439.665L655.592 445.757L670.672 410.185Z" fill="url(#paint7_linear)"/>
<path d="M334.859 214.265C368.232 220.212 397.303 251.969 397.303 251.969L417.425 399.289L449.099 399.292L438.285 212.785L366.645 210.839L334.859 214.265Z" fill="url(#paint8_linear)"/>
<path d="M324.094 318.304C324.094 318.304 306.097 344.644 314.088 367.26L347.569 318.304L343.221 312.464L324.094 318.304Z" fill="#111023"/>
<path d="M417.426 399.29L416.347 406.093C416.347 406.093 406.806 407.428 406.272 421.052H431.088L444.571 407.889L445.83 399.29H417.426Z" fill="#111023"/>
<path d="M334.845 214.265L323.019 215.545C308.405 217.131 298.925 231.759 303.459 245.745L318.967 320.811L345.869 311.172L339.419 250.384L379.112 251.865L397.303 251.969C397.303 251.969 368.232 220.212 334.859 214.265H334.845Z" fill="url(#paint9_linear)"/>
<path d="M242.16 78.5734C242.16 85.9067 239.551 91.9414 236.185 92.7347L236.209 92.8307L288.071 86.2547L293.924 85.5094C293.78 83.5014 293.66 79.2587 295.211 78.356C297.267 77.1654 299.263 79.1147 302.136 81.5907C302.725 82.1067 303.313 83.056 303.867 84.2467L306.019 83.9707V82.2027V73.7041V72.2974L236.329 64.436C239.623 65.3734 242.16 71.336 242.16 78.5734" fill="url(#paint10_linear)"/>
<path d="M228.768 76.8054C229.525 76.4574 230.379 76.288 231.208 76.18C232.457 76.012 233.732 75.94 234.899 75.4827C236.004 75.0494 236.979 74.2933 237.652 73.308C238.577 71.9853 238.927 70.3373 239.671 68.8947C239.791 68.6667 239.923 68.4507 240.067 68.2333C239.069 66.2147 237.772 64.844 236.329 64.436L235.247 64.3147C231.893 64.496 229.164 69.8814 228.768 76.8054Z" fill="url(#paint11_linear)"/>
<path d="M239.671 68.8947C238.927 70.3373 238.577 71.9853 237.652 73.308C236.979 74.2933 236.004 75.0494 234.899 75.4827C233.732 75.94 232.457 76.012 231.208 76.18C230.379 76.288 229.525 76.4574 228.768 76.8054C228.719 77.3827 228.707 77.972 228.707 78.5733C228.707 81.4693 229.116 84.1627 229.813 86.4107C230.233 85.7507 230.799 85.1974 231.496 84.836C232.865 84.1507 234.489 84.332 235.992 83.9947C237.616 83.6214 239.093 82.612 240.019 81.2293C240.813 80.052 241.221 78.6214 242.076 77.4787C242.1 77.4547 242.111 77.4307 242.136 77.4067C242.003 73.8 241.233 70.5907 240.067 68.2333C239.923 68.4507 239.791 68.6667 239.671 68.8947" fill="url(#paint12_linear)"/>
<path d="M242.076 77.4787C241.221 78.6214 240.813 80.052 240.019 81.2294C239.093 82.612 237.616 83.6214 235.992 83.9947C234.489 84.332 232.865 84.1507 231.496 84.8361C230.799 85.1974 230.233 85.7507 229.813 86.4107C231.016 90.2814 233.083 92.8307 235.427 92.8307C235.68 92.8307 235.944 92.7947 236.185 92.7347C239.551 91.9414 242.16 85.9067 242.16 78.5734C242.16 78.176 242.147 77.792 242.136 77.4067C242.111 77.4307 242.1 77.4547 242.076 77.4787" fill="url(#paint13_linear)"/>
<path d="M347.085 75.0866H368.05C365.862 75.9639 363.999 76.9612 363.158 77.7546C362.497 78.3679 362.785 79.4866 363.602 80.9172H347.085V75.0866Z" fill="#111023"/>
<path d="M393.548 78.5971V80.9171H382.187C381.093 78.3931 380.276 76.2651 380 75.0864H393.548V78.5971Z" fill="#111023"/>
<path d="M306.019 73.704V82.2027H347.084V80.9173V75.0867V73.704H306.019Z" fill="url(#paint14_linear)"/>
<path d="M295.211 78.356C293.66 79.2587 293.78 83.5013 293.924 85.5093L288.071 86.2547C287.625 92.0973 298.601 103.601 298.601 103.601L307.641 96.7253C307.641 96.7253 305.981 88.7787 303.867 84.2467C303.313 83.056 302.725 82.1067 302.136 81.5907C299.859 79.628 298.132 77.9973 296.491 77.9973C296.061 77.9973 295.637 78.1093 295.211 78.356" fill="url(#paint15_linear)"/>
<path d="M246.809 64.4883C246.205 63.1657 244.252 64.295 244.851 65.6057C248.568 73.7417 248.091 82.691 243.636 90.4297C242.912 91.6856 244.864 92.8163 245.588 91.5563C250.456 83.1003 250.859 73.351 246.809 64.4883Z" fill="#5B2B89"/>
<path d="M407.817 112.775V105.803L399.475 104.888L407.817 112.775Z" fill="url(#paint16_linear)"/>
<path d="M391.265 100.188L382.104 106.596L377.992 109.468L412.891 156.809C412.891 156.809 444.773 149.08 452.011 147.721C459.247 146.376 459.029 138.056 460.22 130.543C461.325 123.569 457.48 116.297 451.192 115.407C450.724 115.335 450.243 115.299 449.737 115.311C442.609 115.419 424.24 128.283 424.24 128.283L416.221 120.708L407.817 112.775L399.475 104.888L397.143 102.688L393.115 98.8894L391.265 100.188Z" fill="url(#paint17_linear)"/>
<path d="M416.221 120.708L424.24 128.283C424.24 128.283 442.609 115.419 449.737 115.311C450.243 115.299 450.724 115.335 451.192 115.407L430.347 107.257L416.221 120.708Z" fill="url(#paint18_linear)"/>
<path d="M298.601 103.603L294.669 106.596L324.172 144.704L371.176 139.511L375.071 170.959L366.644 210.836C388.271 218.975 422.857 215.031 434.397 213.384C436.863 213.036 438.281 212.783 438.281 212.783L439.903 180.685L452.011 147.721C444.773 149.08 412.891 156.809 412.891 156.809L377.992 109.468L382.104 106.596C382.104 106.596 380.733 106.031 379.145 104.888L335.52 123.955L307.641 96.7253L298.601 103.603Z" fill="url(#paint19_linear)"/>
<path d="M368.049 75.0867C365.863 75.964 364 76.9614 363.157 77.7547C362.496 78.3694 362.785 79.4867 363.603 80.9173C366.151 85.4013 373.94 92.9147 374.337 97.5307C374.637 100.969 377.079 103.409 379.145 104.888C380.733 106.031 382.104 106.596 382.104 106.596L391.265 100.188C391.265 100.188 385.505 88.6587 382.188 80.9173C381.093 78.3933 380.276 76.264 380 75.0867C379.976 75.0027 379.952 74.9174 379.939 74.8454C379.689 73.5734 378.377 73.0787 376.579 73.0787C374.151 73.0787 370.833 73.9814 368.049 75.0867Z" fill="url(#paint20_linear)"/>
<g opacity="0.380005">
<g opacity="0.380005">
<g opacity="0.380005">
<g opacity="0.380005">
<g opacity="0.380005">
<path opacity="0.380005" d="M439.904 180.685C386.507 169.359 377.992 109.469 377.992 109.469L412.892 156.844L452.009 147.721L439.904 180.685Z" fill="url(#paint21_linear)"/>
</g>
</g>
</g>
</g>
</g>
<path d="M395.892 73.272L395.82 73.704C395.604 74.8214 395.52 76.5413 395.52 78.5973C395.52 87.5053 397.143 102.688 397.143 102.688L399.475 104.888L407.817 105.803L421.751 104.888L416.221 120.708L430.347 107.257L429.204 88.9467C429.204 88.9467 433.832 83.9947 432.775 79.872C432.317 78.068 431.176 77.8387 430.047 78.152C428.58 78.5494 427.1 79.872 427.1 79.872C427.1 79.872 426.295 90.2333 423.699 89.9213C421.103 89.596 419.201 71.108 419.201 71.108C419.201 71.108 405.653 74.9173 395.892 73.272" fill="url(#paint22_linear)"/>
<path d="M430.154 64.7116L430.046 78.153C428.58 78.549 427.101 79.8716 427.101 79.8716C427.101 79.8716 426.296 90.2343 423.698 89.921C421.102 89.597 419.202 71.1076 419.202 71.1076C419.202 71.1076 405.654 74.9183 395.893 73.2716V73.2596C392.826 72.7543 390.146 71.697 388.368 69.821C380.902 61.9596 383.498 57.4983 394.197 59.9276C404.897 62.3556 427.077 49.481 430.154 64.7116Z" fill="#111023"/>
<path d="M421.751 104.888L416.222 120.709L407.818 112.775V105.803L421.751 104.888Z" fill="#F79244"/>
<path d="M394.96 75.7103C397.108 74.6316 399.343 74.5036 401.602 75.3183C402.983 75.8143 401.942 77.845 400.578 77.353C399.156 76.8423 397.55 76.9436 396.202 77.6223C394.904 78.273 393.65 76.369 394.96 75.7103Z" fill="#111023"/>
<path d="M417.335 81.0305C417.405 82.3718 416.729 83.4985 415.825 83.5452C414.921 83.5918 414.132 82.5425 414.061 81.2012C413.992 79.8598 414.668 78.7345 415.572 78.6865C416.475 78.6398 417.264 79.6892 417.335 81.0305Z" fill="#111023"/>
<path d="M418.557 75.1647C416.308 74.3167 414.073 74.422 411.911 75.4673C410.589 76.1047 411.836 78.0153 413.141 77.386C414.501 76.7273 416.111 76.662 417.523 77.1953C418.88 77.7073 419.929 75.6833 418.557 75.1647Z" fill="#111023"/>
<path d="M402.737 88.6393C403.465 85.194 405.246 81.686 406.45 78.3753C406.701 77.686 407.716 78.206 407.468 78.8873C406.709 80.974 405.95 83.062 405.192 85.1513C404.929 85.874 404.289 87.0713 404.216 87.8353C403.968 90.4353 405.157 90.2327 406.504 90.8593C407.17 91.1687 406.656 92.186 405.992 91.8767C404.337 91.1073 402.237 91.0033 402.737 88.6393Z" fill="#F79244"/>
<path d="M401.481 81.4024C400.415 80.5437 399.205 79.9797 397.841 79.8051C397.002 79.6984 396.653 80.9864 397.505 81.0957C398.193 81.1837 398.843 81.3811 399.453 81.6744C398.742 81.9051 398.031 82.1371 397.319 82.3677C396.506 82.6317 396.846 83.9211 397.665 83.6557C398.837 83.2744 400.007 82.8944 401.178 82.5144C401.605 82.3757 401.898 81.7384 401.481 81.4024Z" fill="#111023"/>
<path d="M409.958 98.8067C409.958 101.172 408.63 103.091 406.991 103.091C405.354 103.091 404.026 101.172 404.026 98.8067C404.026 96.44 405.354 94.5214 406.991 94.5214C408.63 94.5214 409.958 96.44 409.958 98.8067Z" fill="white"/>
<g opacity="0.5">
<g opacity="0.5">
<g opacity="0.5">
<g opacity="0.5">
<g opacity="0.5">
<path opacity="0.5" d="M815.671 497.937H280.659C280.659 497.937 251.872 517.048 294.669 520.285C337.468 523.521 404.223 526.577 402.576 541.139C400.929 555.7 362.277 552.824 362.277 578.531C362.277 604.24 540.545 598.307 540.545 598.307C540.545 598.307 641.251 599.625 655.592 582.607C669.932 565.588 614.993 550.008 624.965 543.296C634.936 536.584 707.325 556.719 718.112 540.419C728.899 524.12 715.955 513.812 735.851 511.655C755.745 509.499 812.315 517.299 815.671 497.937" fill="url(#paint23_linear)"/>
</g>
</g>
</g>
</g>
</g>
<path d="M734.772 531.791C734.772 538.144 752.881 543.296 775.221 543.296C797.561 543.296 815.671 538.144 815.671 531.791C815.671 525.436 797.561 520.285 775.221 520.285C752.881 520.285 734.772 525.436 734.772 531.791Z" fill="url(#paint24_linear)"/>
<path d="M309.184 541.739C309.184 546.571 325.013 550.488 344.539 550.488C364.065 550.488 379.895 546.571 379.895 541.739C379.895 536.905 364.065 532.988 344.539 532.988C325.013 532.988 309.184 536.905 309.184 541.739Z" fill="url(#paint25_linear)"/>
<path d="M587.355 575.835C587.355 580.104 569.378 583.565 547.199 583.565C525.021 583.565 507.043 580.104 507.043 575.835C507.043 571.567 525.021 568.105 547.199 568.105C569.378 568.105 587.355 571.567 587.355 575.835Z" fill="#E9FDFF"/>
<path d="M497.232 372.972C482.699 386.464 471.977 410.157 465.044 444.052C460.805 464.811 459.619 482.771 461.499 497.931H511.045C510.417 489.079 512.165 474.597 516.272 454.519C520.712 432.799 525.112 418.131 529.471 410.505C532.005 406.079 534.872 403.157 538.072 401.745C540.379 400.719 542.873 400.477 545.525 401.025C551.873 402.332 555.524 407.491 556.485 416.505C557.445 425.532 555.765 440.597 551.459 461.704C548.219 477.531 544.964 489.597 541.712 497.931H596.032C598.552 490.131 600.765 481.544 602.672 472.172C603.939 465.972 604.939 460.024 605.659 454.332C608.765 430.065 606.977 410.305 600.311 395.053C592.072 376.212 576.619 364.477 553.952 359.852C551.485 359.345 549.072 358.945 546.713 358.651C543.247 358.212 539.887 357.992 536.631 357.992C521.101 357.992 507.968 362.985 497.232 372.972" fill="url(#paint26_linear)"/>
<path d="M483.339 370.144C468.819 383.652 458.085 407.345 451.165 441.225C449.752 448.119 448.685 454.719 447.952 460.999C446.339 474.799 446.352 487.119 448.005 497.931H497.485C497.419 497.612 497.379 497.292 497.339 496.957C496.299 488.332 497.979 473.239 502.379 451.692C506.819 429.972 511.219 415.305 515.592 407.691C519.952 400.065 525.297 396.905 531.644 398.211C534.245 398.745 536.392 399.917 538.072 401.745C540.539 404.385 542.032 408.359 542.605 413.677C543.565 422.704 541.885 437.771 537.579 458.877C533.952 476.584 530.311 489.597 526.659 497.931H581.232C584.112 489.397 586.632 479.877 588.792 469.357C595.445 436.771 594.659 411.065 586.433 392.225C579.031 375.304 565.792 364.105 546.713 358.651C544.565 358.037 542.352 357.492 540.059 357.025C533.993 355.784 528.223 355.164 522.751 355.164C507.221 355.164 494.085 360.157 483.339 370.144Z" fill="url(#paint27_linear)"/>
<path d="M624.254 265.16L623.92 265.413L589.079 292.533L567.334 309.453L549.226 359.56L544.201 357.745L562.853 306.187L620.987 260.947L624.254 265.16Z" fill="#2A2A2A"/>
<path d="M589.08 292.533C592.907 294.12 595.867 297.84 596.253 302C596.815 307.959 592.693 313.88 594.24 319.667C595.307 323.653 598.907 326.521 602.733 328.067C607.013 329.773 612.413 330.747 614.201 334.987C615 336.867 614.852 339 614.428 341C613.36 345.987 610.625 350.773 611.213 355.84C611.667 359.692 614.025 363.095 616.813 365.799C619.601 368.507 622.853 370.68 625.773 373.253C627.493 374.785 629.173 376.6 629.613 378.88C630.24 382.227 628.027 385.373 625.933 388.053L626.293 388.68C631.588 385.548 636.987 382.321 640.947 377.613C644.907 372.907 647.225 366.36 645.359 360.493C644 356.255 640.601 352.733 639.933 348.32C638.893 341.413 644.852 335.185 644.935 328.2C645.013 321.973 640.493 316.733 636 312.427C633.827 310.333 631.467 308.093 630.92 305.133C630.572 303.2 631.053 301.227 631.613 299.333C633.027 294.64 635.013 289.973 634.987 285.067C634.92 277.321 629.827 270.533 623.921 265.413L589.08 292.533Z" fill="url(#paint28_linear)"/>
</g>
<defs>
<linearGradient id="paint0_linear" x1="517.222" y1="516.618" x2="538.795" y2="190.865" gradientUnits="userSpaceOnUse">
<stop stop-color="#31D1D6"/>
<stop offset="0.652971" stop-color="#31D1D6"/>
<stop offset="1" stop-color="#45A3FA"/>
</linearGradient>
<linearGradient id="paint1_linear" x1="534.765" y1="516.618" x2="556.338" y2="190.865" gradientUnits="userSpaceOnUse">
<stop stop-color="#31D1D6"/>
<stop offset="0.652971" stop-color="#31D1D6"/>
<stop offset="1" stop-color="#45A3FA"/>
</linearGradient>
<linearGradient id="paint2_linear" x1="318.227" y1="263.955" x2="318.227" y2="207.146" gradientUnits="userSpaceOnUse">
<stop stop-color="#F9E6D9"/>
<stop offset="0.217029" stop-color="white"/>
<stop offset="1" stop-color="white"/>
</linearGradient>
<linearGradient id="paint3_linear" x1="707.698" y1="303.834" x2="711.294" y2="248.463" gradientUnits="userSpaceOnUse">
<stop stop-color="#F9E6D9"/>
<stop offset="0.217029" stop-color="white"/>
<stop offset="1" stop-color="white"/>
</linearGradient>
<linearGradient id="paint4_linear" x1="291.011" y1="400.687" x2="441.857" y2="400.687" gradientUnits="userSpaceOnUse">
<stop stop-color="#31D1D6"/>
<stop offset="0.652971" stop-color="#31D1D6"/>
<stop offset="1" stop-color="#45A3FA"/>
</linearGradient>
<linearGradient id="paint5_linear" x1="353.64" y1="510.734" x2="352.202" y2="437.386" gradientUnits="userSpaceOnUse">
<stop stop-color="#F9E6D9"/>
<stop offset="0.217029" stop-color="white"/>
<stop offset="1" stop-color="white"/>
</linearGradient>
<linearGradient id="paint6_linear" x1="620.517" y1="429.376" x2="768.623" y2="400.732" gradientUnits="userSpaceOnUse">
<stop stop-color="#31D1D6"/>
<stop offset="0.652971" stop-color="#31D1D6"/>
<stop offset="1" stop-color="#45A3FA"/>
</linearGradient>
<linearGradient id="paint7_linear" x1="689.644" y1="504.146" x2="688.206" y2="430.798" gradientUnits="userSpaceOnUse">
<stop stop-color="#F9E6D9"/>
<stop offset="0.217029" stop-color="white"/>
<stop offset="1" stop-color="white"/>
</linearGradient>
<linearGradient id="paint8_linear" x1="387.008" y1="308.063" x2="429.674" y2="297.037" gradientUnits="userSpaceOnUse">
<stop stop-color="#31D1D6"/>
<stop offset="0.652971" stop-color="#31D1D6"/>
<stop offset="1" stop-color="#45A3FA"/>
</linearGradient>
<linearGradient id="paint9_linear" x1="302.318" y1="267.538" x2="397.303" y2="267.538" gradientUnits="userSpaceOnUse">
<stop stop-color="#31D1D6"/>
<stop offset="0.652971" stop-color="#31D1D6"/>
<stop offset="1" stop-color="#45A3FA"/>
</linearGradient>
<linearGradient id="paint10_linear" x1="236.185" y1="78.633" x2="306.019" y2="78.633" gradientUnits="userSpaceOnUse">
<stop stop-color="#51ADC6"/>
<stop offset="0.200913" stop-color="#CAEB8A"/>
<stop offset="1" stop-color="#CAEB8A"/>
</linearGradient>
<linearGradient id="paint11_linear" x1="240.068" y1="70.5604" x2="228.767" y2="70.5604" gradientUnits="userSpaceOnUse">
<stop stop-color="#8AEBD6"/>
<stop offset="0.799087" stop-color="#8AEBD6"/>
<stop offset="1" stop-color="#5193FA"/>
</linearGradient>
<linearGradient id="paint12_linear" x1="242.135" y1="77.3226" x2="228.707" y2="77.3226" gradientUnits="userSpaceOnUse">
<stop stop-color="#31D1D6"/>
<stop offset="0.652971" stop-color="#31D1D6"/>
<stop offset="1" stop-color="#45A3FA"/>
</linearGradient>
<linearGradient id="paint13_linear" x1="242.159" y1="85.1186" x2="229.813" y2="85.1186" gradientUnits="userSpaceOnUse">
<stop stop-color="#8AEBD6"/>
<stop offset="0.799087" stop-color="#8AEBD6"/>
<stop offset="1" stop-color="#5193FA"/>
</linearGradient>
<linearGradient id="paint14_linear" x1="306.019" y1="77.9537" x2="347.085" y2="77.9537" gradientUnits="userSpaceOnUse">
<stop stop-color="#31D1D6"/>
<stop offset="0.652971" stop-color="#31D1D6"/>
<stop offset="1" stop-color="#45A3FA"/>
</linearGradient>
<linearGradient id="paint15_linear" x1="288.057" y1="90.7997" x2="307.641" y2="90.7997" gradientUnits="userSpaceOnUse">
<stop stop-color="#F7BE86"/>
<stop offset="0.652971" stop-color="#F7BE86"/>
<stop offset="1" stop-color="#F79244"/>
</linearGradient>
<linearGradient id="paint16_linear" x1="403.731" y1="105.769" x2="403.082" y2="129.326" gradientUnits="userSpaceOnUse">
<stop stop-color="#7B6ED6"/>
<stop offset="0.799087" stop-color="#7B6ED6"/>
<stop offset="1" stop-color="#333EA8"/>
</linearGradient>
<linearGradient id="paint17_linear" x1="419.607" y1="106.079" x2="417.878" y2="160.757" gradientUnits="userSpaceOnUse">
<stop stop-color="#7B6ED6"/>
<stop offset="0.799087" stop-color="#7B6ED6"/>
<stop offset="1" stop-color="#333EA8"/>
</linearGradient>
<linearGradient id="paint18_linear" x1="434.022" y1="106.603" x2="433.374" y2="130.16" gradientUnits="userSpaceOnUse">
<stop stop-color="#7B6ED6"/>
<stop offset="0.799087" stop-color="#7B6ED6"/>
<stop offset="1" stop-color="#333EA8"/>
</linearGradient>
<linearGradient id="paint19_linear" x1="294.67" y1="156.261" x2="452.01" y2="156.261" gradientUnits="userSpaceOnUse">
<stop stop-color="#7B6ED6"/>
<stop offset="0.799087" stop-color="#7B6ED6"/>
<stop offset="1" stop-color="#333EA8"/>
</linearGradient>
<linearGradient id="paint20_linear" x1="362.792" y1="89.8368" x2="391.264" y2="89.8368" gradientUnits="userSpaceOnUse">
<stop stop-color="#F7BE86"/>
<stop offset="0.652971" stop-color="#F7BE86"/>
<stop offset="1" stop-color="#F79244"/>
</linearGradient>
<linearGradient id="paint21_linear" x1="377.992" y1="145.077" x2="452.01" y2="145.077" gradientUnits="userSpaceOnUse">
<stop stop-color="#3C0887"/>
<stop offset="0.652971" stop-color="#3C0887"/>
<stop offset="1" stop-color="#822A8A"/>
</linearGradient>
<linearGradient id="paint22_linear" x1="395.52" y1="95.908" x2="432.932" y2="95.908" gradientUnits="userSpaceOnUse">
<stop stop-color="#F7BE86"/>
<stop offset="0.652971" stop-color="#F7BE86"/>
<stop offset="1" stop-color="#F79244"/>
</linearGradient>
<linearGradient id="paint23_linear" x1="542.002" y1="602.519" x2="543.44" y2="503.283" gradientUnits="userSpaceOnUse">
<stop stop-color="#8AEBD6"/>
<stop offset="0.799087" stop-color="#8AEBD6"/>
<stop offset="1" stop-color="#5193FA"/>
</linearGradient>
<linearGradient id="paint24_linear" x1="775.221" y1="596.15" x2="775.221" y2="508.779" gradientUnits="userSpaceOnUse">
<stop stop-color="#8AEBD6"/>
<stop offset="0.799087" stop-color="#8AEBD6"/>
<stop offset="1" stop-color="#5193FA"/>
</linearGradient>
<linearGradient id="paint25_linear" x1="344.539" y1="596.15" x2="344.539" y2="508.779" gradientUnits="userSpaceOnUse">
<stop stop-color="#8AEBD6"/>
<stop offset="0.799087" stop-color="#8AEBD6"/>
<stop offset="1" stop-color="#5193FA"/>
</linearGradient>
<linearGradient id="paint26_linear" x1="469.731" y1="421.126" x2="607.356" y2="449.254" gradientUnits="userSpaceOnUse">
<stop stop-color="#31D1D6"/>
<stop offset="0.652971" stop-color="#31D1D6"/>
<stop offset="1" stop-color="#45A3FA"/>
</linearGradient>
<linearGradient id="paint27_linear" x1="521.031" y1="507.452" x2="519.593" y2="434.104" gradientUnits="userSpaceOnUse">
<stop stop-color="#F9E6D9"/>
<stop offset="0.217029" stop-color="white"/>
<stop offset="1" stop-color="white"/>
</linearGradient>
<linearGradient id="paint28_linear" x1="589.08" y1="327.047" x2="646.016" y2="327.047" gradientUnits="userSpaceOnUse">
<stop stop-color="#7B6ED6"/>
<stop offset="0.799087" stop-color="#7B6ED6"/>
<stop offset="1" stop-color="#333EA8"/>
</linearGradient>
<clipPath id="clip0">
<rect width="1000" height="666.667" fill="white"/>
</clipPath>
</defs>
</svg>
